<svg xmlns="http://www.w3.org/2000/svg" width="163.38" height="35" viewBox="0 0 163.38 35"><rect class="svg__rect" x="0" y="0" width="101.13" height="35" fill="#FF0000"/><rect class="svg__rect" x="99.13" y="0" width="64.25" height="35" fill="#FFFFFF"/><path class="svg__text" d="M13.97 18.13L13.97 18.13L13.97 17.46Q13.97 15.53 14.90 14.44Q15.82 13.35 17.48 13.35L17.48 13.35Q18.90 13.35 19.74 14.05Q20.58 14.76 20.75 16.08L20.75 16.08L19.30 16.08Q19.05 14.54 17.51 14.54L17.51 14.54Q16.51 14.54 16.00 15.26Q15.48 15.98 15.46 17.37L15.46 17.37L15.46 18.02Q15.46 19.40 16.04 20.17Q16.63 20.93 17.66 20.93L17.66 20.93Q18.80 20.93 19.28 20.42L19.28 20.42L19.28 18.75L17.52 18.75L17.52 17.62L20.76 17.62L20.76 20.89Q20.29 21.50 19.47 21.81Q18.65 22.12 17.61 22.12L17.61 22.12Q16.54 22.12 15.71 21.63Q14.89 21.14 14.44 20.24Q13.99 19.33 13.97 18.13ZM26.94 22L25.46 22L25.46 13.47L26.94 13.47L26.94 22ZM34.05 22L30.99 13.47L32.61 13.47L34.75 20.14L36.92 13.47L38.55 13.47L35.48 22L34.05 22ZM43.28 22L41.74 22L44.96 13.47L46.29 13.47L49.52 22L47.97 22L47.28 20.01L43.97 20.01L43.28 22ZM45.62 15.28L44.39 18.82L46.86 18.82L45.62 15.28ZM62.56 22L59.45 22L59.45 13.47L62.38 13.47Q63.82 13.47 64.58 14.05Q65.33 14.63 65.33 15.78L65.33 15.78Q65.33 16.36 65.02 16.83Q64.70 17.30 64.09 17.56L64.09 17.56Q64.78 17.75 65.16 18.26Q65.54 18.78 65.54 19.51L65.54 19.51Q65.54 20.71 64.77 21.36Q64.00 22 62.56 22L62.56 22ZM60.93 18.15L60.93 20.82L62.58 20.82Q63.28 20.82 63.67 20.47Q64.06 20.13 64.06 19.51L64.06 19.51Q64.06 18.18 62.70 18.15L62.70 18.15L60.93 18.15ZM60.93 14.66L60.93 17.06L62.39 17.06Q63.08 17.06 63.47 16.75Q63.86 16.43 63.86 15.86L63.86 15.86Q63.86 15.23 63.50 14.95Q63.14 14.66 62.38 14.66L62.38 14.66L60.93 14.66ZM69.74 18.00L69.74 18.00L69.74 17.52Q69.74 16.28 70.18 15.32Q70.63 14.37 71.43 13.86Q72.24 13.35 73.28 13.35Q74.32 13.35 75.13 13.85Q75.93 14.35 76.37 15.29Q76.81 16.23 76.82 17.48L76.82 17.48L76.82 17.96Q76.82 19.21 76.39 20.16Q75.95 21.10 75.15 21.61Q74.34 22.12 73.29 22.12L73.29 22.12Q72.25 22.12 71.44 21.61Q70.63 21.10 70.19 20.17Q69.75 19.23 69.74 18.00ZM71.22 17.46L71.22 17.96Q71.22 19.36 71.77 20.13Q72.32 20.90 73.29 20.90L73.29 20.90Q74.28 20.90 74.81 20.15Q75.34 19.40 75.34 17.96L75.34 17.96L75.34 17.51Q75.34 16.09 74.80 15.34Q74.26 14.58 73.28 14.58L73.28 14.58Q72.32 14.58 71.78 15.33Q71.23 16.09 71.22 17.46L71.22 17.46ZM82.97 14.66L80.33 14.66L80.33 13.47L87.10 13.47L87.10 14.66L84.44 14.66L84.44 22L82.97 22L82.97 14.66Z" fill="#FFFFFF"/><path class="svg__text" d="M115.90 22L112.31 13.60L114.88 13.60L117.16 19.07L119.49 13.60L121.84 13.60L118.24 22L115.90 22ZM125.11 21.34L125.11 21.34L125.97 19.55Q126.46 19.88 127.08 20.07Q127.70 20.25 128.30 20.25L128.30 20.25Q128.91 20.25 129.27 20.02Q129.63 19.79 129.63 19.37L129.63 19.37Q129.63 18.55 128.35 18.55L128.35 18.55L127.35 18.55L127.35 17.05L128.85 15.44L125.54 15.44L125.54 13.60L131.61 13.60L131.61 15.09L129.87 16.96Q130.91 17.18 131.47 17.82Q132.03 18.46 132.03 19.37L132.03 19.37Q132.03 20.11 131.63 20.75Q131.22 21.39 130.40 21.78Q129.58 22.17 128.37 22.17L128.37 22.17Q127.48 22.17 126.61 21.95Q125.74 21.74 125.11 21.34ZM136.19 20.75L136.19 20.75Q136.19 20.15 136.58 19.78Q136.97 19.41 137.56 19.41L137.56 19.41Q138.16 19.41 138.55 19.78Q138.93 20.15 138.93 20.75L138.93 20.75Q138.93 21.34 138.54 21.72Q138.15 22.11 137.56 22.11L137.56 22.11Q136.98 22.11 136.59 21.72Q136.19 21.34 136.19 20.75ZM143.16 17.80L143.16 17.80Q143.16 16.45 143.63 15.46Q144.10 14.46 144.94 13.95Q145.78 13.43 146.86 13.43L146.86 13.43Q147.93 13.43 148.77 13.95Q149.61 14.46 150.09 15.46Q150.56 16.45 150.56 17.80L150.56 17.80Q150.56 19.15 150.09 20.15Q149.61 21.14 148.77 21.65Q147.94 22.17 146.86 22.17L146.86 22.17Q145.78 22.17 144.94 21.65Q144.10 21.14 143.63 20.15Q143.16 19.16 143.16 17.80ZM145.54 17.80L145.54 17.80Q145.54 19.06 145.90 19.64Q146.25 20.22 146.86 20.22L146.86 20.22Q147.47 20.22 147.82 19.64Q148.18 19.06 148.18 17.80L148.18 17.80Q148.18 16.54 147.82 15.96Q147.47 15.38 146.86 15.38L146.86 15.38Q146.25 15.38 145.90 15.96Q145.54 16.54 145.54 17.80Z" fill="#161010" x="112.13"/></svg>